<?xml version="1.0" standalone="no"?>
<!DOCTYPE svg PUBLIC "-//W3C//DTD SVG 20010904//EN"
 "http://www.w3.org/TR/2001/REC-SVG-20010904/DTD/svg10.dtd">
<svg version="1.0" xmlns="http://www.w3.org/2000/svg"
 width="2362.000000pt" height="2362.000000pt" viewBox="0 0 2362.000000 2362.000000"
 preserveAspectRatio="xMidYMid meet">
<metadata>
Created by potrace 1.11, written by Peter Selinger 2001-2013
</metadata>
<g transform="translate(0.000000,2362.000000) scale(0.100000,-0.100000)"
fill="#000000" stroke="none">
<path d="M11381 21603 l-33 -4 6 -207 c4 -114 8 -236 11 -272 2 -36 7 -144 10
-240 3 -96 10 -274 15 -395 6 -121 10 -251 10 -288 l0 -68 128 3 c107 3 127 5
126 19 -1 8 -4 112 -8 230 -3 117 -9 262 -12 320 -6 93 -5 107 10 112 22 9 19
17 111 -354 l79 -316 125 5 c69 2 127 6 129 7 2 2 -44 156 -102 342 -58 186
-106 342 -106 347 0 5 21 29 46 53 84 81 116 208 97 378 -21 177 -89 275 -221
315 -54 17 -89 20 -226 18 -88 0 -176 -3 -195 -5z m368 -267 c21 -42 25 -64
25 -145 0 -79 -4 -103 -22 -137 -24 -47 -37 -54 -93 -54 l-39 0 0 48 c0 26 -3
114 -7 195 l-6 148 59 -3 59 -3 24 -49z"/>
<path d="M12680 21603 c0 -5 -34 -327 -75 -717 -41 -390 -75 -717 -75 -726 0
-15 15 -19 88 -27 48 -6 89 -8 91 -6 3 2 28 218 58 481 29 262 54 486 56 497
1 11 7 -88 11 -220 4 -132 9 -247 11 -255 1 -8 6 -127 10 -265 4 -141 12 -253
17 -256 16 -10 171 -20 178 -12 4 4 58 214 121 465 62 251 115 455 117 453 2
-1 -18 -213 -43 -470 -26 -256 -45 -468 -43 -470 1 -1 30 -6 63 -9 33 -4 72
-9 87 -12 34 -7 30 -30 68 346 17 168 33 321 35 340 3 19 12 103 20 185 9 83
26 249 39 370 13 121 22 222 21 224 -9 8 -278 32 -285 24 -4 -4 -58 -211 -121
-460 -62 -249 -114 -451 -115 -450 -6 7 -14 198 -19 442 -3 154 -8 330 -11
392 l-6 112 -42 5 c-229 28 -256 30 -256 19z"/>
<path d="M10329 21473 l-86 -15 -6 -317 c-12 -564 -9 -1181 5 -1181 17 0 188
29 211 36 15 5 17 22 17 164 l0 158 63 11 c35 6 70 11 78 11 10 0 30 -47 62
-145 27 -79 51 -146 55 -149 6 -3 233 33 240 39 2 1 -470 1303 -499 1378 -13
31 -16 31 -140 10z m241 -939 c0 -10 -107 -31 -115 -22 -1 2 -10 100 -19 218
-9 118 -19 242 -22 275 -2 33 -6 87 -9 120 -3 42 21 -36 80 -260 47 -176 85
-325 85 -331z"/>
<path d="M14372 21278 c-15 -34 -149 -341 -298 -683 -229 -522 -269 -621 -255
-627 40 -19 222 -55 227 -46 4 6 31 70 60 142 l53 131 39 -2 c22 -1 58 -7 81
-13 35 -9 40 -14 37 -33 -3 -12 -8 -69 -11 -127 -3 -58 -8 -119 -11 -136 l-6
-30 117 -28 c65 -16 120 -24 125 -20 4 5 15 153 24 329 9 176 19 352 21 390
29 463 43 761 37 766 -7 7 -181 49 -201 49 -7 0 -25 -28 -39 -62z m22 -589
c-26 -173 -50 -317 -54 -322 -9 -11 -110 14 -110 27 0 14 204 615 208 612 1
-2 -19 -144 -44 -317z"/>
<path d="M9265 21227 c-132 -39 -242 -72 -244 -73 -4 -3 406 -1404 413 -1411
7 -7 236 61 236 70 0 6 -132 464 -176 608 -4 13 10 21 68 38 118 35 110 22 78
129 -15 51 -30 96 -34 99 -3 3 -44 -5 -91 -19 l-84 -26 -25 82 c-62 206 -88
298 -85 301 2 1 56 17 119 35 63 18 118 35 122 39 7 6 -42 185 -52 194 -3 2
-113 -28 -245 -66z"/>
<path d="M7658 20612 c-60 -32 -108 -61 -108 -66 0 -4 61 -126 135 -270 l134
-262 -76 -38 c-42 -20 -79 -34 -83 -29 -4 4 -67 124 -140 266 -72 141 -134
257 -136 257 -8 0 -179 -89 -198 -103 -18 -13 -9 -33 184 -413 112 -219 206
-403 210 -409 4 -5 62 -119 130 -252 68 -134 127 -243 132 -243 7 0 208 97
216 105 2 2 -62 131 -142 288 -80 156 -146 289 -146 294 0 9 128 83 143 83 3
0 71 -129 152 -287 81 -159 148 -289 150 -291 6 -6 226 109 223 116 -10 24
-232 459 -238 467 -4 6 -101 195 -215 420 -114 226 -210 413 -214 417 -3 3
-54 -19 -113 -50z"/>
<path d="M6310 19819 c-47 -33 -84 -64 -83 -68 1 -4 131 -291 289 -637 158
-346 295 -648 306 -671 10 -24 22 -43 26 -43 6 0 187 122 199 133 2 2 -28 69
-67 147 -55 109 -68 145 -58 151 7 4 36 24 63 43 l50 34 112 -111 c129 -127
104 -124 237 -30 l78 55 -523 526 c-288 290 -528 528 -534 529 -5 1 -48 -25
-95 -58z m413 -528 l195 -235 -46 -33 c-26 -18 -49 -33 -52 -33 -4 0 -102 171
-304 530 -29 53 -8 29 207 -229z"/>
<path d="M16820 18701 c0 -517 3 -941 8 -943 4 -2 427 -2 940 0 l932 3 0 940
0 939 -940 0 -940 0 0 -939z"/>
<path d="M11705 19444 c-349 -21 -674 -55 -937 -99 -1057 -179 -2009 -543
-2910 -1114 l-168 -106 0 -5176 0 -5177 139 93 c285 190 604 328 923 399 180
40 313 56 563 66 264 10 372 27 538 81 562 184 967 639 1098 1234 20 91 22
136 26 483 l5 382 539 0 539 0 0 -348 c0 -373 -8 -491 -46 -698 -77 -421 -267
-830 -550 -1184 -92 -115 -296 -317 -423 -419 -280 -225 -675 -430 -1170 -607
l-134 -47 -111 19 c-174 30 -450 26 -617 -9 -332 -70 -596 -212 -835 -451
-246 -246 -396 -531 -456 -866 -17 -97 -21 -169 -25 -471 l-5 -355 108 -71
c825 -537 1751 -912 2731 -1107 160 -32 416 -76 443 -76 7 0 10 319 10 968 0
1046 -1 1055 -55 1261 -71 265 -245 557 -440 739 -80 74 -184 152 -319 236
-52 33 -83 58 -75 61 8 2 93 32 190 65 296 100 556 218 808 364 62 36 117 66
121 66 11 0 175 -174 241 -256 261 -321 445 -690 537 -1079 68 -287 66 -229
69 -1424 l4 -1084 76 7 c42 3 125 6 185 6 l108 0 0 2755 0 2755 57 -37 c79
-50 167 -89 265 -115 69 -19 107 -23 228 -22 178 1 258 20 413 97 l107 54 0
-2678 c0 -2379 2 -2679 15 -2679 15 0 221 43 362 75 l73 17 3 3151 3 3152 21
125 c149 877 658 1576 1448 1991 267 140 529 225 870 282 129 21 145 21 1838
24 l1708 4 -5 27 c-3 15 -14 83 -25 152 -156 980 -524 1965 -1061 2838 l-94
152 -918 0 -918 0 0 -940 0 -940 -937 2 -938 3 -3 938 -2 937 -935 0 -935 0 0
940 0 940 935 0 935 0 0 579 0 579 -82 32 c-730 281 -1554 454 -2378 500 -157
9 -646 11 -775 4z m1420 -8769 c223 -47 421 -221 508 -447 30 -80 32 -89 32
-233 0 -144 -2 -153 -32 -233 -66 -172 -187 -308 -344 -387 -121 -60 -213 -79
-348 -72 -294 15 -535 199 -628 482 -23 70 -27 97 -27 210 0 116 3 138 27 210
66 190 201 343 371 421 133 61 298 79 441 49z"/>
<path d="M5450 19094 c-30 -8 -79 -30 -108 -50 -41 -27 -186 -150 -280 -239
-12 -10 72 -108 477 -556 270 -299 495 -544 500 -544 18 0 244 213 284 267 52
73 69 117 70 189 0 72 -47 175 -124 269 -116 143 -482 539 -538 584 -105 82
-186 105 -281 80z m84 -230 c23 -9 598 -649 620 -691 19 -34 19 -37 1 -69 -26
-49 -63 -80 -80 -69 -16 12 -695 764 -695 771 0 2 21 18 47 34 46 29 76 36
107 24z"/>
<path d="M4509 18228 c-29 -35 -59 -70 -65 -78 -11 -13 29 -51 271 -255 156
-132 282 -241 281 -243 -2 -1 -168 62 -371 139 -363 140 -368 141 -384 121 -9
-11 -35 -42 -58 -70 l-42 -49 562 -477 562 -476 42 45 c23 25 55 62 71 83 l30
37 -290 245 c-159 135 -295 251 -301 258 -8 10 0 9 28 -3 22 -9 197 -80 389
-157 345 -140 348 -141 365 -121 9 11 34 42 55 68 l40 47 -21 16 c-12 10 -263
222 -558 472 -295 250 -540 456 -544 458 -5 1 -32 -26 -62 -60z"/>
<path d="M19620 16741 l0 -749 111 -202 c704 -1289 1068 -2709 1069 -4182 1
-2175 -780 -4218 -2239 -5853 -149 -167 -489 -507 -656 -656 -1066 -952 -2322
-1625 -3670 -1968 -1603 -407 -3311 -354 -4865 151 -1187 386 -2268 1015
-3195 1858 -170 155 -512 502 -656 665 -602 684 -1083 1431 -1444 2245 -45
102 -95 218 -111 257 -16 40 -35 73 -42 73 -14 0 -815 -200 -820 -205 -2 -2
31 -88 73 -192 407 -1000 977 -1918 1713 -2753 185 -210 619 -643 827 -824
998 -872 2083 -1499 3289 -1901 864 -289 1689 -444 2616 -492 306 -15 937 -4
1215 22 28 3 102 9 165 15 1117 102 2275 433 3320 951 1300 643 2447 1583
3336 2734 1055 1367 1723 2991 1928 4695 53 443 83 993 72 1315 -15 389 -18
450 -32 625 -135 1667 -679 3213 -1618 4606 -135 199 -366 514 -378 514 -4 0
-8 -337 -8 -749z m1493 -5312 c14 -6 31 -22 37 -35 l13 -24 23 25 c21 23 30
25 119 25 l95 0 0 -50 0 -51 -80 3 c-104 4 -112 -3 -114 -108 l-1 -79 92 -3
c100 -3 104 -6 95 -74 l-4 -27 -147 5 c-80 3 -177 7 -216 9 -38 2 -83 4 -99 4
l-29 1 6 145 c7 162 17 193 70 225 36 22 103 26 140 9z m-157 -712 c1 -1 -5
-57 -13 -125 -8 -68 -13 -126 -9 -129 3 -3 28 -8 55 -11 l49 -4 13 121 13 121
40 -7 c23 -3 42 -6 42 -7 1 -1 -4 -53 -12 -116 -7 -63 -11 -116 -8 -119 6 -6
118 -21 122 -16 3 2 11 64 19 137 9 73 16 133 17 134 0 1 18 -1 39 -4 36 -4
37 -5 36 -46 0 -22 -8 -104 -17 -181 l-17 -140 -40 -1 c-22 0 -85 5 -140 12
-55 7 -147 18 -204 24 l-104 13 7 81 c4 44 8 90 10 101 2 11 7 55 11 99 l8 78
41 -6 c22 -4 41 -8 42 -9z m99 -716 c207 -37 210 -38 208 -62 -6 -50 -14 -69
-31 -69 -23 0 -454 79 -459 84 -3 2 -1 25 2 50 7 46 8 46 39 41 17 -4 126 -23
241 -44z m125 -485 c-1 -6 -18 -81 -38 -166 -28 -114 -42 -155 -52 -154 -8 1
-116 25 -238 55 l-224 54 7 40 c3 22 10 44 15 49 4 4 92 -13 196 -38 103 -26
191 -43 195 -39 4 5 17 51 28 103 32 141 26 129 71 118 22 -6 40 -16 40 -22z
m-456 -569 c44 -25 76 -77 76 -122 0 -16 -9 -59 -20 -93 -11 -35 -20 -68 -20
-73 0 -4 33 -18 73 -30 39 -12 76 -25 81 -30 13 -12 -11 -89 -28 -89 -13 0
-448 139 -454 145 -7 6 67 230 84 253 44 63 137 80 208 39z m-247 -647 c84
-38 105 -124 58 -238 -14 -34 -25 -63 -25 -66 0 -2 36 -18 80 -37 44 -18 80
-37 79 -43 0 -6 -8 -28 -17 -48 l-17 -37 -225 94 c-152 62 -224 97 -222 106 8
40 87 217 106 238 46 52 113 63 183 31z m-274 -651 c161 -82 201 -108 222
-149 40 -78 -7 -219 -94 -277 -62 -42 -101 -33 -291 62 -94 47 -170 88 -170
90 0 10 40 85 45 85 3 0 77 -36 165 -80 88 -44 169 -80 181 -80 74 0 119 113
65 163 -13 12 -91 55 -174 96 l-150 74 21 44 c12 24 25 43 30 43 4 0 72 -32
150 -71z m-392 -629 c18 -10 18 -12 -5 -48 -19 -31 -28 -37 -53 -34 -40 4 -89
-37 -104 -89 -11 -34 -10 -42 6 -59 31 -34 61 -25 128 39 75 71 133 111 161
111 39 -1 105 -38 126 -72 44 -72 12 -187 -75 -267 -48 -44 -97 -59 -147 -45
-40 12 -43 21 -18 62 17 27 26 32 57 32 21 0 47 7 57 15 58 44 75 132 31 161
-35 23 -58 12 -140 -66 -87 -82 -125 -98 -184 -74 -23 9 -52 30 -66 46 -59 70
-13 215 90 279 33 21 105 25 136 9z m-738 -1223 c82 -65 150 -117 152 -115 1
1 36 44 78 95 l74 92 33 -28 33 -27 -104 -132 c-57 -72 -107 -131 -112 -131
-4 -1 -92 67 -196 151 l-188 152 30 38 c16 21 35 34 41 31 6 -4 78 -60 159
-126z m-313 -409 c127 -57 230 -106 230 -110 0 -4 -14 -23 -31 -42 l-31 -36
-48 25 -48 25 -65 -67 -65 -67 25 -50 25 -49 -36 -35 c-19 -20 -37 -34 -39
-31 -2 2 -56 105 -120 229 l-115 225 36 43 c20 23 40 42 44 42 4 0 112 -46
238 -102z m-562 -379 l44 -22 -34 -34 c-34 -33 -36 -34 -76 -24 -54 15 -104
-5 -132 -51 -25 -41 -25 -61 -1 -114 37 -81 124 -154 183 -154 35 0 88 37 103
72 13 32 13 39 0 89 -5 21 0 30 30 54 41 31 47 28 65 -35 20 -71 4 -134 -48
-192 -98 -108 -236 -103 -349 14 -52 54 -93 139 -93 196 0 156 170 267 308
201z m-488 -596 c80 -103 145 -190 145 -195 0 -4 -16 -19 -35 -33 -42 -31 -24
-47 -204 184 l-136 174 32 28 c18 16 38 28 43 28 6 0 75 -84 155 -186z m-434
-178 c80 -47 137 -147 137 -240 0 -97 -25 -131 -172 -228 l-84 -56 -50 72
c-53 76 -207 304 -219 323 -10 15 158 131 216 150 54 18 119 10 172 -21z
m-648 -319 c24 -41 31 -34 -105 -111 l-103 -58 27 -48 28 -48 40 23 c22 13 70
40 107 60 l67 37 15 -30 c9 -16 16 -34 16 -39 0 -5 -37 -29 -82 -55 -130 -72
-123 -63 -91 -124 16 -29 33 -53 38 -53 6 0 60 29 120 64 61 35 113 62 118 59
9 -5 40 -64 35 -68 -11 -10 -307 -175 -314 -175 -9 0 -236 391 -241 415 -2 7
264 168 304 184 0 1 10 -14 21 -33z m-518 -510 c55 -115 100 -215 100 -221 0
-9 -59 -45 -74 -45 -2 0 -34 65 -71 145 -38 79 -70 143 -73 141 -3 -3 38 -244
53 -312 4 -18 -3 -24 -38 -38 -23 -9 -46 -16 -49 -16 -4 0 -48 48 -99 108 -51
59 -101 116 -111 127 -19 20 -19 19 -4 -17 9 -20 41 -87 71 -149 30 -61 55
-113 55 -116 0 -5 -66 -33 -78 -33 -8 0 -212 418 -212 434 0 6 132 68 135 64
11 -18 235 -288 235 -284 0 3 -16 80 -35 172 -19 91 -35 172 -35 180 0 13 107
75 123 71 4 -1 53 -96 107 -211z"/>
<path d="M21014 11336 c-15 -12 -20 -31 -25 -98 -3 -46 -4 -86 -2 -90 2 -5 33
-8 69 -8 l64 0 2 58 c2 94 0 113 -18 133 -20 22 -62 25 -90 5z"/>
<path d="M20585 8857 c-13 -20 -45 -110 -45 -128 0 -3 26 -13 58 -23 31 -10
62 -21 69 -23 7 -3 20 21 32 62 26 83 26 81 -4 110 -33 34 -88 34 -110 2z"/>
<path d="M20357 8213 c-16 -18 -57 -107 -57 -124 0 -10 104 -59 124 -59 14 0
56 101 56 135 0 51 -88 85 -123 48z"/>
<path d="M18601 5293 c23 -43 46 -82 51 -88 5 -5 26 9 53 35 l46 45 -87 42
c-47 24 -90 43 -95 43 -5 0 9 -35 32 -77z"/>
<path d="M17067 4144 c-31 -19 -57 -38 -57 -41 0 -2 41 -65 91 -138 l92 -134
43 29 c96 67 108 130 44 231 -62 96 -120 111 -213 53z"/>
<path d="M3678 17148 c-37 -57 -64 -105 -60 -109 4 -4 279 -189 612 -412 l605
-405 69 104 c40 60 65 108 60 113 -16 14 -1196 802 -1208 807 -6 2 -41 -42
-78 -98z"/>
<path d="M6494 17138 c-172 -176 -260 -271 -394 -429 -1009 -1179 -1643 -2611
-1830 -4131 -71 -580 -78 -1210 -19 -1787 122 -1197 514 -2338 1156 -3365 296
-474 699 -980 1082 -1361 l121 -120 0 5653 c0 3108 -1 5652 -3 5652 -1 0 -52
-51 -113 -112z"/>
<path d="M2920 15803 c-28 -59 -49 -112 -46 -118 2 -5 84 -47 182 -92 99 -45
397 -183 662 -307 l484 -225 48 102 c27 56 50 108 52 115 2 7 -243 127 -662
322 -365 171 -666 310 -667 310 -2 0 -26 -48 -53 -107z"/>
<path d="M2689 14966 c-103 -36 -157 -115 -229 -332 -29 -86 -48 -159 -44
-163 12 -10 1384 -474 1388 -470 2 2 29 83 61 179 48 144 59 187 59 245 1 130
-71 229 -219 300 -206 99 -384 98 -487 -2 -34 -33 -38 -35 -38 -15 0 46 -41
131 -81 167 -93 84 -301 130 -410 91z m234 -245 c31 -12 73 -38 93 -57 34 -31
36 -37 31 -79 -2 -25 -8 -49 -11 -53 -4 -3 -86 20 -182 52 -174 57 -176 58
-169 84 3 14 16 39 27 55 20 28 23 29 87 25 36 -3 92 -15 124 -27z m542 -166
c33 -8 93 -31 133 -51 88 -43 109 -74 98 -148 -4 -26 -13 -46 -19 -46 -10 0
-383 122 -445 145 -19 7 22 81 56 99 35 20 103 20 177 1z"/>
<path d="M2342 13719 c-85 -27 -160 -99 -191 -183 -80 -218 10 -387 254 -475
47 -17 222 -58 392 -92 287 -58 317 -63 448 -63 124 -1 147 2 197 22 120 49
189 154 196 304 4 76 1 93 -21 140 -43 95 -123 160 -259 209 -74 27 -309 79
-611 134 -174 32 -313 33 -405 4z m537 -285 c185 -36 366 -74 402 -85 102 -29
146 -84 119 -148 -31 -76 -105 -74 -562 17 -356 71 -415 89 -458 134 -38 42
-22 110 33 133 55 24 120 17 466 -51z"/>
<path d="M2011 12430 c-14 -9 -21 -200 -8 -201 7 0 19 -2 28 -4 8 -1 82 -6
165 -10 82 -4 165 -9 184 -10 19 -2 94 -6 165 -9 222 -12 228 -8 -183 -125
-205 -59 -377 -113 -381 -120 -5 -7 -9 -48 -10 -91 l-2 -78 73 -6 c40 -3 154
-11 253 -16 228 -12 342 -19 430 -25 39 -2 117 -7 175 -10 58 -3 143 -8 190
-11 47 -3 144 -9 215 -13 72 -5 132 -7 134 -5 2 2 6 51 9 108 l4 103 -58 6
c-33 3 -198 13 -369 22 -170 9 -319 20 -329 24 -14 5 28 20 135 48 85 22 263
69 396 104 l242 64 7 83 c3 46 4 85 2 88 -6 5 -132 13 -848 54 -289 16 -544
31 -568 33 -24 1 -47 0 -51 -3z"/>
<path d="M16490 11609 c-746 -84 -1341 -656 -1445 -1389 -11 -77 -15 -199 -15
-452 l0 -348 1090 0 1090 0 0 -540 0 -540 -1090 0 -1090 0 0 -2005 c0 -1103 4
-2005 8 -2005 19 0 258 107 459 205 1051 512 1964 1241 2692 2149 796 994
1330 2138 1575 3376 91 457 133 849 151 1383 l6 177 -1678 -1 c-923 -1 -1712
-5 -1753 -10z"/>
<path d="M3100 11174 c-118 -7 -269 -15 -335 -18 -237 -12 -321 -17 -380 -21
-33 -2 -130 -7 -215 -10 -85 -4 -163 -9 -172 -11 -20 -6 -23 -61 -11 -187 l6
-67 61 4 c67 6 194 13 386 21 69 3 148 8 175 10 28 2 115 7 195 10 80 3 163 8
185 10 22 2 105 7 185 11 80 3 159 8 175 9 17 2 47 3 68 4 l37 1 0 94 c0 51
-3 108 -6 125 l-7 32 -66 -3 c-36 -1 -163 -7 -281 -14z"/>
<path d="M3090 10310 c-217 -109 -405 -199 -416 -199 -12 -1 -158 31 -324 69
-167 39 -304 69 -305 68 -4 -4 41 -267 46 -272 2 -2 121 -23 264 -46 143 -23
267 -44 275 -47 8 -3 -102 -26 -245 -50 -142 -24 -260 -45 -262 -46 -3 -4 37
-240 41 -245 3 -3 1448 237 1453 242 3 3 -37 239 -41 244 -2 1 -122 -17 -268
-42 -243 -40 -269 -43 -328 -32 l-63 11 39 19 c21 10 161 75 309 143 149 69
271 126 272 127 5 4 -41 256 -46 255 -3 0 -184 -90 -401 -199z"/>
</g>
</svg>
